<svg xmlns="http://www.w3.org/2000/svg" viewBox="0 0 810 1012.5" fill="currentColor">
  <title>Mixcloud Wordmark</title>
  <desc>Wordmark oficial de Mixcloud, adaptable vía currentColor.</desc>
  <defs>
    <clipPath id="mixcloud-wordmark-clip">
      <path d="M180 315h477.523v386H180z" />
    </clipPath>
  </defs>
  <g clip-path="url(#mixcloud-wordmark-clip)">
    <path fill-rule="evenodd" d="M3456.027344 507.753906c0-160.929687-100.332032-186.785156-196.417969-186.785156h-130.238281v374.339844h130.238281c95.894531 0 196.417969-26.242188 196.417969-187.554688zm-67.53125 0c0 120.019532-62.707032 127.929688-128.886719 127.929688h-32.605468c-12.929688 0-19.683594 1.929687-25.855469 5.789062l-14.277344 9.070313-11.964844-11.964844 8.296875-4.628906c5.402344-3.859375 9.648438-9.070313 12.347656-16.402344 1.351563-4.4375 1.929688-9.648437 1.929688-16.015625h.195312V413.007812c.617188-11.671874-4.863281-22.863281-14.472656-29.519531l-8.296875-4.824219 11.964844-11.964843 14.277344 9.070312c2.699219 1.734375 5.789063 2.894531 9.648437 3.859375 1.542969.382813 4.820313.578125 6.367188.578125h42.445312c66.179688 0 128.695312 8.105469 128.695312 127.546875zM3066.28125 555.992188V321.160156h-68.496094v209.554688c0 70.625-14.277344 110.566406-92.035156 110.566406-77.949219 0-92.226562-39.941406-92.226562-110.566406V320.96875h-68.300782V556.1875c0 93.390625 53.058594 144.332031 160.527344 144.332031 106.890625 0 160.335938-50.941406 160.335938-144.332031zM2691.96875 507.753906c0-108.832031-69.460938-192.1875-183.683594-192.1875-114.996094 0-184.261718 83.355469-184.261718 192.1875 0 109.40625 69.265624 192.765625 184.261718 192.765625 114.417969 0 183.683594-83.355469 183.683594-192.765625zm-68.300781 0c0 79.113282-38.011719 133.140625-115.382813 133.140625-77.371094 0-115.960937-54.027343-115.960937-133.140625 0-78.535156 38.589843-132.757812 115.769531-132.757812 77.5625 0 115.765625 54.027344 115.765625 132.757812zM2007.980469 700.519531l273.980469-48.238281v-65.222656l-265.488282 45.925781-7.71875-8.105469c8.101563-2.507812 27.011719-9.648437 27.011719-24.3125l.191406-279.792968h-68.109375v340.382812c0 25.46875 14.664063 39.75 40.132813 39.363281zM1613.796875 507.753906c0-82.394531 43.410156-132.757812 117.695313-132.757812 59.234374 0 100.332031 31.839844 109.011718 90.304687h68.304688c-11.191406-92.621093-77.371094-149.734375-178.652344-149.734375-114.996094 0-184.84375 83.355469-184.84375 192.1875 0 109.40625 69.847656 192.765625 184.84375 192.765625 101.101562 0 167.28125-57.308594 178.472656-150.316406h-68.304687c-8.488281 58.46875-49.777344 90.691406-109.203125 90.691406-74.09375 0-117.503906-50.167969-117.503906-133.140625zM1318.785156 565.253906l177.507813 128.125v-78.726562l-150.496094-106.707032 150.496094-106.707031v-78.535156L1318.785156 451.214844h-19.101562L1122.945312 322.703125v78.535156l149.726563 106.707031-149.726563 106.707032v78.726562l176.542969-128.125zM690.558594 542.101562h374.3125v-68.308593h-374.3125zM549.902344 695.117188h68.300781V320.773438H483.144531l-75.054687 356.976562h-17.367188L315.476562 320.773438H180.414062v374.34375h68.300782V383.101562l-12.347656-44.765624h21.417968l78.914063 356.972656h125.414062l78.335938-356.972656h21.996093l-12.542968 44.570312z" />
  </g>
</svg>
