<svg xmlns="http://www.w3.org/2000/svg" xmlns:xlink="http://www.w3.org/1999/xlink" width="500" zoomAndPan="magnify" viewBox="0 0 375 374.999991" height="500" preserveAspectRatio="xMidYMid meet" version="1.2"><g id="89bf8e75ff"><path style=" stroke:none;fill-rule:evenodd;fill:#000000;fill-opacity:1;" d="M 164.570312 120.882812 C 152.511719 121.425781 134.136719 122.761719 130.210938 123.382812 C 129.726562 123.457031 127.597656 123.71875 125.480469 123.960938 C 100.632812 126.808594 73.480469 132.796875 53.089844 139.925781 C 32.90625 146.980469 2.871094 163.21875 4.101562 166.410156 C 4.554688 167.589844 4.796875 167.558594 18.859375 164.441406 C 55.9375 156.226562 67.171875 155.328125 72.628906 160.136719 C 75.152344 162.359375 76.226562 167.238281 75.070312 171.21875 C 74.382812 173.582031 72.261719 176.59375 71.578125 176.167969 C 71.417969 176.070312 71.367188 176.121094 71.464844 176.28125 C 71.90625 176.996094 68.246094 179.394531 65.015625 180.515625 C 61.765625 181.644531 52.613281 182.878906 37.753906 184.195312 C 13.394531 186.355469 7.679688 187.015625 7.074219 187.746094 C 6.378906 188.585938 7.234375 189.285156 9.363281 189.617188 C 10.460938 189.785156 12.683594 190.132812 14.308594 190.382812 C 19.546875 191.191406 37.070312 193.359375 49.050781 194.679688 C 62.878906 196.203125 67.304688 198.535156 68.40625 204.871094 C 70.226562 215.34375 57.25 218.917969 32.59375 214.734375 C 21.171875 212.796875 16.734375 211.972656 12.683594 211.042969 C 2.652344 208.738281 2.65625 208.738281 2.65625 210.285156 C 2.65625 212.265625 15.195312 219.792969 27.285156 225.070312 C 43.949219 232.34375 72.921875 240.765625 94.96875 244.746094 C 119.300781 249.136719 134.371094 251.09375 154.835938 252.519531 C 157.351562 252.695312 159.996094 252.898438 160.710938 252.96875 C 164.476562 253.339844 188.074219 253.746094 188.828125 253.449219 C 190.929688 252.625 189.589844 251.226562 182.707031 247.070312 C 160.441406 233.628906 157.222656 227.714844 166.257812 216.859375 C 178.105469 202.625 194.714844 192.761719 210.871094 190.363281 L 213.675781 189.945312 C 214.648438 189.800781 216.371094 189.609375 217.507812 189.515625 C 218.644531 189.421875 220.222656 189.269531 221.019531 189.171875 C 223.414062 188.882812 233.652344 189 236.738281 189.351562 C 250.863281 190.96875 250.957031 200.035156 236.941406 208.898438 C 230.257812 213.125 218.605469 219.121094 217.882812 218.703125 C 217.675781 218.585938 217.613281 218.601562 217.742188 218.742188 C 217.867188 218.882812 214.417969 220.742188 210.074219 222.871094 C 188.410156 233.5 186.449219 239.570312 202.941406 244.96875 C 217.335938 249.679688 237.238281 250.859375 258.058594 248.238281 C 263.605469 247.539062 263.957031 247.492188 267.644531 246.882812 C 309.601562 239.949219 341.371094 227.097656 362.167969 208.644531 C 373.644531 198.457031 373.121094 195.941406 360.546875 200.871094 C 316.882812 217.988281 303.433594 219.90625 293.808594 210.382812 C 287.832031 204.476562 285.769531 189.582031 288.628906 172.980469 C 291.171875 158.199219 296.167969 153.484375 309.230469 153.546875 C 319.566406 153.59375 326.058594 154.820312 349.484375 161.152344 C 366.84375 165.839844 368.472656 166.226562 369.664062 165.925781 C 372.027344 165.335938 370.800781 163.324219 366.132812 160.140625 C 337.484375 140.589844 312.613281 132.3125 263.222656 125.898438 C 260.625 125.5625 258.171875 125.234375 257.765625 125.167969 C 257.042969 125.054688 252.09375 124.566406 242.796875 123.691406 C 217.625 121.324219 182.671875 120.070312 164.570312 120.882812 M 147.316406 138.015625 C 121.558594 139.78125 97.78125 149.933594 94.058594 160.761719 C 90.488281 171.140625 98.382812 175.402344 116.445312 172.847656 C 138.234375 169.765625 152.105469 164.277344 161.265625 155.121094 C 172.972656 143.417969 167.445312 136.636719 147.316406 138.015625 M 229.453125 140.261719 C 227.21875 140.417969 220.484375 141.011719 220.015625 141.09375 C 219.773438 141.136719 218.910156 141.265625 218.097656 141.375 C 181.300781 146.457031 163.949219 171.355469 194.015625 175.933594 C 205.019531 177.609375 225.304688 175.921875 239.835938 172.117188 C 261.96875 166.328125 275.371094 154.070312 267.738281 146.601562 C 263.324219 142.277344 244.746094 139.203125 229.453125 140.261719 M 138.625 180.390625 C 106.910156 184.203125 84.773438 199.691406 90.667969 213.9375 C 94.289062 222.679688 108.578125 224.917969 124.808594 219.285156 C 140.414062 213.867188 157.023438 199.703125 158.960938 190.160156 C 160.550781 182.339844 152.914062 178.671875 138.625 180.390625 "/></g></svg>